<svg xmlns="http://www.w3.org/2000/svg" xmlns:xlink="http://www.w3.org/1999/xlink" viewBox="0 0 500 500"><defs><clipPath id="freepik--clip-path--inject-22"><path d="M344.51,333.3c12.34,7.12,32.34,7.12,44.68,0s12.34-18.68,0-25.8-32.34-7.13-44.68,0S332.17,326.17,344.51,333.3Z" style="fill:none"></path></clipPath><clipPath id="freepik--clip-path-2--inject-22"><path d="M262.38,212.63c3.66,17.54-2,28-5.13,46.94-.77,4.64-2.33,24-1.82,34.53,8.41,7.08,16.88,12.21,13.17,16.23-2.49,2.71-9.62,3.3-20.47-2.11-3.38-1.68-6.06-3.64-6.93-5.49-1.17-2.48-2.92-9.27-3.6-14.73-3.36-27.13-3.46-40.85-3.46-40.85Z" style="fill:#37474f"></path></clipPath><clipPath id="freepik--clip-path-3--inject-22"><path d="M175.08,161.93c3.67,17.54-2,28-5.13,46.95-.77,4.63-3.1,21.76-2.58,32.28,7,7,18,14.31,14.27,18.34-2.5,2.71-9.95,3.44-20.81-2-3.37-1.68-6.06-3.64-6.93-5.49-1.16-2.47-1.66-8.92-2.34-14.38-3.35-27.13-4.72-41.19-4.72-41.19Z" style="fill:#37474f"></path></clipPath><clipPath id="freepik--clip-path-4--inject-22"><path d="M305.52,164.86c-2.81-6.31-3.34-19.59-7.55-28.71s-17.22-14.89-30.55-12.78c-19.53,3.1-24.85,18.3-29.9,33.87-5.31,16.36-23.22,11.36-37.12,3.56-11.89-6.68-25.24-16.31-47-10.56-8.06,2.14-16.72,8.74-23.75,19.25-5.35,8-15.59,45.88-16.24,61.31-.39,9.27,0,12.92,0,21.55,0,5.51,0,14,1.13,16.52.87,1.84,3.56,3.8,6.93,5.48,10.85,5.42,18.31,4.69,20.8,2,3.71-4-5.12-9.4-12.17-16.35-.26-5.23,2.05-20,2.05-20,1.2-2.38,6.2-4.87,10.08-9.68A97.83,97.83,0,0,0,153,213.89c17,8.28,18.41,14.93,26.85,25.11,7.8,9.41,12.67,11.44,19.4,14.28h0s2.34,25,5.7,52.08c.67,5.47,1.17,11.91,2.33,14.39.87,1.85,3.81,3.43,7.07,5.31,11.15,6.44,17.14,3.9,20.31,2,4.8-2.86.39-7.08-13.91-18.19-.52-10.53,2.68-28.08,3.46-32.72,1.19-7.13,4.15-18.21,4.15-18.21,8.46-.24,21.46-6.34,31.62-19.87,8.36-11.05,9-24.5,12.5-42,.29-1.46.58-3,1-4.5,0,0,14,3.38,22,2.74.59-.06,1.17-.12,1.75-.23a8,8,0,0,0,1.58-.35c2.22-.47,4.84-2.52,6.48-3.58a17.65,17.65,0,0,0,3.56-3,11.27,11.27,0,0,0,.88-.93.34.34,0,0,0,.17-.3c.06,0,.06,0,.12-.06a21.54,21.54,0,0,0,3.1-5.08C315.23,175.92,308.32,171.18,305.52,164.86Z" style="fill:#455a64"></path></clipPath></defs><g id="freepik--Floor--inject-22"><path id="freepik--floor--inject-22" d="M97,392.35c84,42.95,220.18,42.95,304.18,0s84-112.57,0-155.52-220.19-43-304.18,0S13,349.41,97,392.35Z" style="fill:#f5f5f5"></path></g><g id="freepik--Shadows--inject-22"><path id="freepik--Shadow--inject-22" d="M406.27,372.78c-21.77,11.84-57.07,11.84-78.84,0s-21.77-31,0-42.85,57.07-11.83,78.84,0S428,361,406.27,372.78Z" style="fill:#e6e6e6"></path><ellipse id="freepik--shadow--inject-22" cx="196.24" cy="282.65" rx="113.18" ry="61.52" style="fill:#e6e6e6"></ellipse></g><g id="freepik--Plants--inject-22"><g id="freepik--plants--inject-22"><path d="M376.94,252.38l-10.33-5.9s-5-27.32-1.25-50.81c5.21-33,27.69-44.4,35.86-41.12s10.08,13.06-4.67,32.14C387.85,198,376.66,221.74,376.94,252.38Z" style="fill:#9BD49D"></path><g style="opacity:0.1"><path d="M376.94,252.38l-10.33-5.9s-5-27.32-1.25-50.81c5.21-33,27.69-44.4,35.86-41.12s10.08,13.06-4.67,32.14C387.85,198,376.66,221.74,376.94,252.38Z"></path></g><path d="M373.2,239.27h.1a.75.75,0,0,0,.63-.83c-4.27-30.91,8.16-64.78,22.12-78.43a.74.74,0,0,0,0-1,.76.76,0,0,0-1.05,0c-14.22,13.9-26.89,48.32-22.55,79.68A.74.74,0,0,0,373.2,239.27Z" style="fill:#fff"></path><path d="M405.62,269c1.63.94,5-1.11,6.29-2a15.58,15.58,0,0,0,5.18-6,14.64,14.64,0,0,0,1.3-8.77,34.09,34.09,0,0,0-1.11-4.67c-.43-1.51-.87-3-1.3-4.52a11.57,11.57,0,0,1-.67-4.57c.4-3.1,3.15-5.27,5.65-7.14,2.76-2.07,5.64-4.8,5.62-8.53,0-2.87-1.5-5.54-3.28-7.8s-3.9-4.25-5.51-6.64a9.19,9.19,0,0,1-1.88-5.79,9.51,9.51,0,0,1,1.27-3.62c1.31-2.42,3.05-4.65,4-7.26s.78-5.85-1.26-7.71c-1.67-1.53-4.15-1.75-6.41-1.6a14.69,14.69,0,0,0-6,2.1c-5.92,3.29-9.3,10.3-15.58,12.83-2.42,1-5.07,1.19-7.6,1.86s-5.1,2-6.27,4.29c-2.3,4.61,2,10.28.36,15.17-1.44,4.33-5.64,6-8,9.88a9.32,9.32,0,0,0-1.11,5.66,27.44,27.44,0,0,0,2.39,9.57,67.72,67.72,0,0,0,5.25,8.62C377,252.48,405.37,268.8,405.62,269Z" style="fill:#9BD49D"></path><path d="M388.84,260h0a.75.75,0,0,0,.72-.77c-1.22-29.26,12.57-61.56,22.59-70.94a.73.73,0,0,0,0-1,.74.74,0,0,0-1,0c-10.22,9.58-24.29,42.41-23.06,72.08A.75.75,0,0,0,388.84,260Z" style="fill:#fff"></path><path d="M393.23,225.44a.76.76,0,0,0,.21,0c9.4-2.91,21.12-3.42,21.23-3.42a.74.74,0,0,0,.71-.77.72.72,0,0,0-.77-.71c-.12,0-12,.53-21.6,3.49a.74.74,0,0,0,.22,1.44Z" style="fill:#fff"></path></g></g><g id="freepik--Food--inject-22"><path d="M415.16,339.75h0l-5.66-22.87H381.07a83.82,83.82,0,0,0-28.44,0H324.19l-5.66,22.87h0c-2.16,8.51,2.44,17.48,13.78,24,19.07,11,50,11,69.06,0C412.72,357.23,417.31,348.26,415.16,339.75Z" style="fill:#9BD49D"></path><path d="M415.16,339.75h0l-5.66-22.87H381.07a83.82,83.82,0,0,0-28.44,0H324.19l-5.66,22.87h0c-2.16,8.51,2.44,17.48,13.78,24,19.07,11,50,11,69.06,0C412.72,357.23,417.31,348.26,415.16,339.75Z" style="opacity:0.1"></path><ellipse cx="366.85" cy="320.4" rx="43.09" ry="24.88" style="fill:#9BD49D"></ellipse><path d="M344.51,333.3c12.34,7.12,32.34,7.12,44.68,0s12.34-18.68,0-25.8-32.34-7.13-44.68,0S332.17,326.17,344.51,333.3Z" style="opacity:0.2"></path><g style="clip-path:url(#freepik--clip-path--inject-22)"><path d="M392,317.75c-.22,0-.44,0-.65,0a4.6,4.6,0,0,0,.08-.84,4.26,4.26,0,0,0-7.92-2.19,7.56,7.56,0,0,0-12.25-4,4.26,4.26,0,0,0-8.47.67,4.6,4.6,0,0,0,.08.84,7.45,7.45,0,0,0-2.47-.42,7.53,7.53,0,0,0-6.07,3.06,4.26,4.26,0,0,0-8,2c0,.16,0,.32,0,.47a7.58,7.58,0,0,0-11.12,6.69c0,4.18,2.88,7.23,7.23,9.31a45.22,45.22,0,0,0,24.93,7.77c11.87,0,21.14-5.18,25.23-7.58,5-2.57,6.94-4.09,6.94-8.28A7.57,7.57,0,0,0,392,317.75Z" style="fill:#b16668"></path><path d="M347.24,329.86a4.19,4.19,0,0,1,5.3-6.43,4.14,4.14,0,0,1,1.84,3,3.82,3.82,0,0,0-1.17-1.2,4,4,0,0,0-6,4.62Z" style="fill:#9a4a4d"></path><path d="M366,330.39a4.19,4.19,0,0,1,8.34.07,4.14,4.14,0,0,1-1.19,3.32,4,4,0,0,0-7.15-3.39Z" style="fill:#9a4a4d"></path><path d="M351.83,324.45a3.6,3.6,0,1,1,6.14-2.94,3.43,3.43,0,0,0-6.14,2.94Z" style="fill:#9a4a4d"></path><path d="M373.73,330.83a3.6,3.6,0,0,1,6.42-3.19,3.54,3.54,0,0,1,.38,3,3.25,3.25,0,0,0-.49-1.35,3.43,3.43,0,0,0-6.31,1.53Z" style="fill:#9a4a4d"></path><path d="M365.89,320.75a3.6,3.6,0,1,1,6.8-.18,3.42,3.42,0,0,0-6.8.18Z" style="fill:#9a4a4d"></path><path d="M371.87,318.32a2.89,2.89,0,0,1,5.14-2.56,2.84,2.84,0,0,1,.31,2.41,2.74,2.74,0,0,0-5.45.15Z" style="fill:#9a4a4d"></path></g></g><g id="freepik--Dog--inject-22"><path d="M149.5,156.74c-11.66-14-34.88-13.88-41.69-22.45-9.44-11.89,2.15-26.23,1.12-30.49s-11.6,3.28-14,17.67c-1.84,11,2.46,20.14,13.78,26.85,9,5.31,29,10.84,32.35,19.45Z" style="fill:#263238"></path><path d="M262.38,212.63c3.66,17.54-2,28-5.13,46.94-.77,4.64-2.33,24-1.82,34.53,8.41,7.08,16.88,12.21,13.17,16.23-2.49,2.71-9.62,3.3-20.47-2.11-3.38-1.68-6.06-3.64-6.93-5.49-1.17-2.48-2.92-9.27-3.6-14.73-3.36-27.13-3.46-40.85-3.46-40.85Z" style="fill:#37474f"></path><g style="clip-path:url(#freepik--clip-path-2--inject-22)"><path d="M263.55,309.52a9.56,9.56,0,0,0-5-4.19c-.32-.12-.63.17-.26.39a8.11,8.11,0,0,1,3.23,5c.31,1.08.24,2.2.49,3.27s1.79.76,2.12-.07a2,2,0,0,0,.23-1A6.73,6.73,0,0,0,263.55,309.52Z" style="fill:#263238"></path><path d="M267.52,307a11,11,0,0,0-4.21-2.47c-.25-.08-.38.16-.16.31a10.32,10.32,0,0,1,3.1,3.34,11.23,11.23,0,0,1,1.09,2.71c.24.91.07,1.41.92,1.93.25.16.82.14,1-.18C270,310.81,268.9,308.25,267.52,307Z" style="fill:#263238"></path></g><path d="M175.08,161.93c3.67,17.54-2,28-5.13,46.95-.77,4.63-3.1,21.76-2.58,32.28,7,7,18,14.31,14.27,18.34-2.5,2.71-9.95,3.44-20.81-2-3.37-1.68-6.06-3.64-6.93-5.49-1.16-2.47-1.66-8.92-2.34-14.38-3.35-27.13-4.72-41.19-4.72-41.19Z" style="fill:#37474f"></path><g style="clip-path:url(#freepik--clip-path-3--inject-22)"><path d="M175.37,257.24A8.46,8.46,0,0,0,171.3,254c-.23-.09-.61.07-.33.32,3,2.64,2.61,7.46,2.53,11a.93.93,0,0,0,1.38.81l.12,0a1.77,1.77,0,0,0,1.15-1.37C176.25,262.22,176.67,259.51,175.37,257.24Z" style="fill:#263238"></path><path d="M180.2,256.29c-1-1.22-2.73-2.78-4.35-3-.27,0-.27.27-.08.39a6.55,6.55,0,0,1,2.09,1.82A16.49,16.49,0,0,1,179,259.1c.4,1.43-.15,3.73,1.3,4.49a.79.79,0,0,0,1-.23C182.44,261.38,181.62,258,180.2,256.29Z" style="fill:#263238"></path></g><path d="M167.37,241.16a9.91,9.91,0,0,0-8.16,3.68s5.93-2.5,11.31-.55l.3.09C169.62,243.31,168.45,242.23,167.37,241.16Z" style="fill:#263238"></path><path d="M275.4,123c3.25-3.35,6.17-4,10.8-2.54,5.89,1.86,15.61,8.61,17.51,12.49,2.79,5.74-10.76,29.78-18.38,23.84S275.4,123,275.4,123Z" style="fill:#263238"></path><path d="M305.52,164.86c-2.81-6.31-3.34-19.59-7.55-28.71s-17.22-14.89-30.55-12.78c-19.53,3.1-24.85,18.3-29.9,33.87-5.31,16.36-23.22,11.36-37.12,3.56-11.89-6.68-25.24-16.31-47-10.56-8.06,2.14-16.72,8.74-23.75,19.25-5.35,8-15.59,45.88-16.24,61.31-.39,9.27,0,12.92,0,21.55,0,5.51,0,14,1.13,16.52.87,1.84,3.56,3.8,6.93,5.48,10.85,5.42,18.31,4.69,20.8,2,3.71-4-5.12-9.4-12.17-16.35-.26-5.23,2.05-20,2.05-20,1.2-2.38,6.2-4.87,10.08-9.68A97.83,97.83,0,0,0,153,213.89c17,8.28,18.41,14.93,26.85,25.11,7.8,9.41,12.67,11.44,19.4,14.28h0s2.34,25,5.7,52.08c.67,5.47,1.17,11.91,2.33,14.39.87,1.85,3.81,3.43,7.07,5.31,11.15,6.44,17.14,3.9,20.31,2,4.8-2.86.39-7.08-13.91-18.19-.52-10.53,2.68-28.08,3.46-32.72,1.19-7.13,4.15-18.21,4.15-18.21,8.46-.24,21.46-6.34,31.62-19.87,8.36-11.05,9-24.5,12.5-42,.29-1.46.58-3,1-4.5,0,0,14,3.38,22,2.74.59-.06,1.17-.12,1.75-.23a8,8,0,0,0,1.58-.35c2.22-.47,4.84-2.52,6.48-3.58a17.65,17.65,0,0,0,3.56-3,11.27,11.27,0,0,0,.88-.93.34.34,0,0,0,.17-.3c.06,0,.06,0,.12-.06a21.54,21.54,0,0,0,3.1-5.08C315.23,175.92,308.32,171.18,305.52,164.86Z" style="fill:#455a64"></path><g style="clip-path:url(#freepik--clip-path-4--inject-22)"><path d="M230,324.75c-1-1.4-3.38-3.1-5.23-2.74-.21,0,0,.29.12.32,2.91,1.15,4.69,4.8,4.24,7.8-.2,1.26,1.73.36,2-.1C232.14,328.56,230.89,326,230,324.75Z" style="fill:#37474f"></path><path d="M230.35,321.15c-.54,0-.18.57.17.62s.81.65,1,.87a9.22,9.22,0,0,1,1.71,2,30.59,30.59,0,0,1,2,4.79c.44,1.08,2.42,0,2.22-1C236.89,325.17,234,321.06,230.35,321.15Z" style="fill:#37474f"></path><path d="M131.21,270.72c-.17-.06-.41.06-.28.26.86,1.29,1.78,2.45,2.55,3.83a13.52,13.52,0,0,1,1.52,4.78.81.81,0,0,0,.57.56l.55.14a.87.87,0,0,0,.94-.43C138.75,275.91,134.7,271.84,131.21,270.72Z" style="fill:#37474f"></path><path d="M141.39,273.34a8.15,8.15,0,0,0-4.58-3.45c-.25-.05-.75.09-.46.43a20.41,20.41,0,0,1,3.08,4.52c.42.88.86,1.8,1.21,2.71s.33,1.95,1.35,2.38a.91.91,0,0,0,1.13-.39C144.14,277.59,142.45,275,141.39,273.34Z" style="fill:#37474f"></path></g><path d="M272.65,195.41l-16,.69-17.17-5.32-12.95-13.44c0,7.5,5.75,22.44,20.47,27s24,0,24,0h0c.47-2.65,1-5.38,1.54-8.24C272.55,195.88,272.6,195.64,272.65,195.41Z" style="fill:#37474f"></path><path d="M295.3,165.82c-4.74,1.51-4.53,6.61-7.78,10.32s-18,11.05-24.93,6.52c-8.79-5.72-18.47-3.87-14.93,6.5s21.14,8.24,25.84,2.44h0s14,3.38,22,2.74c.59-.06,1.17-.12,1.75-.23a8,8,0,0,0,1.58-.35c2.22-.47,4.84-2.52,6.48-3.58a17.65,17.65,0,0,0,3.56-3,11.27,11.27,0,0,0,.88-.93.34.34,0,0,0,.17-.3c.06,0,.06,0,.12-.06a21.54,21.54,0,0,0,3.1-5.08c1.64-3.81-2.16-7.53-5.25-12h0C304.6,165.22,304.08,163,295.3,165.82Z" style="fill:#f0f0f0"></path><path d="M273.5,191.6c-13.78-1.7-17.88-7.93-17.88-7.93s-6.14,6,.41,10.85S273.5,191.6,273.5,191.6Z" style="fill:#e0e0e0"></path><path d="M273.5,191.6c-9.14,4.84-22.65,1.21-30.51-5.56-6.42-5.54-9.31-14.3-7.26-24.79,0,0-7.59,1.22-9.35,6.51-1.35,5.66-.09,16.11,8.35,24.05,7.48,7,26,15.48,37.18,7.64C271.91,199.45,275.35,196.83,273.5,191.6Z" style="fill:#9BD49D"></path><path d="M266.32,126.41c-3-7.12-20.27-5.68-32.18,5.54-5.87,5.52-3.95,11.28-3.62,17.07C231,157.44,236,167,243,167.5s11.13-11.71,12.39-18.23C257.21,140.05,262.32,128.66,266.32,126.41Z" style="fill:#263238"></path><path d="M307.67,187.57c-2.56.43-7.35-2.77-8.72-5.38a5.18,5.18,0,0,1,2.47-7c2.46-.95,7.2-1.76,9.42-1s3.66,4.13,3.32,5.68C313.51,182.84,311.18,187,307.67,187.57Z" style="fill:#263238"></path><path d="M274.07,158.83a3.1,3.1,0,1,1,3.1,3.1A3.1,3.1,0,0,1,274.07,158.83Z" style="fill:#fafafa"></path><path d="M274,158.33a2.6,2.6,0,1,1,2.6,2.6A2.6,2.6,0,0,1,274,158.33Z" style="fill:#263238"></path><path d="M245.08,233.32c-5.78,3.3-13.22,11-16.69,24.63,8.46-.24,21.46-6.34,31.62-19.87a40.54,40.54,0,0,0,5.52-10.14C257.07,236.37,250.86,230,245.08,233.32Z" style="fill:#f0f0f0"></path><path d="M228.39,258c7.51-.21,18.58-5,28.08-15.59-.52.41-10.14,8.76-15.55,8.93-5.61.17-6.78-4.13-6-8.27A46.29,46.29,0,0,0,228.39,258Z" style="fill:#e0e0e0"></path><polygon points="199.28 253.28 199.28 253.28 199.28 253.28 199.28 253.28" style="fill:#ebebeb"></polygon><path d="M130.14,260s-3.14-1.66-9.62,3.65c0,0,7.86-2.76,12.85-.64h0C132.29,262,131.19,261,130.14,260Z" style="fill:#37474f"></path><path d="M224.68,311.94q-1.81-1.44-3.9-3.06a7.31,7.31,0,0,0-7.39,4S219.24,309.72,224.68,311.94Z" style="fill:#37474f"></path><path d="M271.59,155.18c1.14.92,3-2.06,7.48-2.43,3.18-.27,2.47-4.89-1.9-4.34S269.9,153.81,271.59,155.18Z" style="fill:#e0e0e0"></path><path d="M248,297s6.65-1.62,11.43.38c-1.28-1-2.62-2.11-4-3.23C255.43,294.1,251.79,293.36,248,297Z" style="fill:#263238"></path><path d="M301,145.29c-1.65-1.13-3.24-1-5.15.06a2,2,0,0,0,1.79,3.48c1.9-.56,3.64-.47,4.12-.07A3.71,3.71,0,0,0,301,145.29Z" style="fill:#e0e0e0"></path><path d="M297.15,153.6a3,3,0,1,1,3,3A3,3,0,0,1,297.15,153.6Z" style="fill:#fafafa"></path><path d="M297.12,153.12a2.48,2.48,0,1,1,2.48,2.48A2.48,2.48,0,0,1,297.12,153.12Z" style="fill:#263238"></path></g></svg>